<svg width="190" height="42" viewBox="0 0 190 42" fill="none" xmlns="http://www.w3.org/2000/svg">
<g style="mix-blend-mode:darken">
<path d="M45.7084 4.39002V23.7348C45.7084 25.7369 45.2628 27.1149 44.3716 27.869C43.4804 28.623 41.838 29 39.4445 29H37.4965L37 23.6958H38.2986C38.7315 23.6958 38.9989 23.6438 39.1007 23.5398C39.228 23.4098 39.2917 23.1498 39.2917 22.7597V4.39002H45.7084Z" fill="#232323"/>
<path d="M55.7569 20.6537C55.7569 21.4597 55.9224 22.0577 56.2534 22.4477C56.5844 22.8378 57.1191 23.0328 57.8576 23.0328C58.6215 23.0328 59.1434 22.8508 59.4235 22.4867C59.7291 22.0967 59.8819 21.4727 59.8819 20.6147V4.39002H66.4514V21.0047C66.4514 23.7868 65.7002 25.8149 64.1979 27.0889C62.721 28.363 60.5312 29 57.6284 29C54.7511 29 52.5994 28.376 51.1735 27.1279C49.773 25.8539 49.0728 23.8388 49.0728 21.0827V4.39002H55.7569V20.6537Z" fill="#232323"/>
<path d="M87.1135 28.61H80.8495L75.9224 17.3385H75.6169V28.61H69.8113V4.39002H76.2662L80.9641 16.0125H81.2697V4.39002H87.1135V28.61Z" fill="#232323"/>
<path d="M97.3502 28.61H90.8571V4.39002H97.3502V28.61Z" fill="#232323"/>
<path d="M102.519 6.92512C103.996 4.97504 106.402 4 109.738 4C113.073 4 115.454 4.96204 116.88 6.88612C118.331 8.81019 119.057 11.9433 119.057 16.2855C119.057 20.6017 118.319 23.7998 116.842 25.8799C115.365 27.96 112.971 29 109.661 29C106.351 29 103.97 27.973 102.519 25.9189C101.067 23.8648 100.342 20.6797 100.342 16.3635C100.342 12.0213 101.067 8.87519 102.519 6.92512ZM112.488 16.2855C112.488 13.8934 112.297 12.2813 111.915 11.4493C111.558 10.5913 110.807 10.1622 109.661 10.1622C108.541 10.1622 107.815 10.5913 107.484 11.4493C107.153 12.2813 106.988 13.8804 106.988 16.2465V17.1825C106.988 19.7046 107.166 21.3687 107.522 22.1747C107.904 22.9548 108.655 23.3448 109.776 23.3448C110.922 23.3448 111.66 22.9678 111.991 22.2137C112.322 21.4597 112.488 19.8996 112.488 17.5335V16.2855Z" fill="#232323"/>
<path d="M137.89 12.0733C137.89 13.5294 137.674 14.7384 137.241 15.7005C136.808 16.6625 136.133 17.5335 135.217 18.3136L138.387 28.61H131.321L128.953 19.8736H128.074V28.61H121.658V4.39002H130.519C133.065 4.39002 134.924 5.00104 136.095 6.22309C137.292 7.44514 137.89 9.39522 137.89 12.0733ZM129.067 15.7785C129.729 15.7785 130.2 15.5835 130.481 15.1934C130.761 14.8034 130.901 14.1014 130.901 13.0874C130.901 12.0473 130.761 11.3323 130.481 10.9423C130.2 10.5263 129.742 10.3183 129.105 10.3183H128.074V15.7785H129.067Z" fill="#232323"/>
<path d="M139.462 11.6833C139.462 9.36922 140.124 7.51014 141.448 6.10608C142.772 4.70203 144.58 4 146.871 4C149.189 4 151.557 4.23401 153.976 4.70203L153.212 10.9423C150.691 10.3443 148.959 10.0452 148.017 10.0452C146.82 10.0452 146.222 10.5393 146.222 11.5273C146.222 11.9173 146.502 12.2943 147.062 12.6583C147.648 13.0224 148.348 13.4124 149.163 13.8284C149.978 14.2184 150.793 14.6994 151.608 15.2715C152.422 15.8175 153.11 16.6105 153.67 17.6505C154.256 18.6906 154.549 19.8866 154.549 21.2387C154.549 23.7088 153.899 25.6199 152.601 26.9719C151.302 28.324 149.456 29 147.062 29C144.694 29 142.377 28.623 140.111 27.869L140.531 22.0577C143.256 22.8638 145.153 23.2668 146.222 23.2668C147.292 23.2668 147.826 22.7858 147.826 21.8237C147.826 21.3297 147.533 20.8747 146.948 20.4587C146.388 20.0426 145.7 19.6266 144.885 19.2106C144.07 18.7946 143.243 18.3136 142.403 17.7675C141.588 17.2215 140.888 16.4285 140.302 15.3885C139.742 14.3484 139.462 13.1134 139.462 11.6833Z" fill="#232323"/>
<path d="M171.574 19.6006H166.762V24.8658H161.796V19.6006H157.136V14.6864H161.796V9.38222H166.762V14.6864H171.574V19.6006Z" fill="#232323"/>
<path d="M190 19.6006H185.187V24.8658H180.222V19.6006H175.562V14.6864H180.222V9.38222H185.187V14.6864H190V19.6006Z" fill="#232323"/>
</g>
<path d="M17.3623 1.08899C17.6074 1.30263 17.8394 1.52331 18.0684 1.75393C18.1244 1.80757 18.1805 1.86121 18.2382 1.91647C19.3046 3.02412 19.4629 4.50537 19.4594 5.959C19.4597 6.09963 19.4602 6.24026 19.4607 6.38089C19.4619 6.76559 19.4619 7.15028 19.4616 7.53498C19.4616 7.95053 19.4627 8.36608 19.4636 8.78163C19.4652 9.59498 19.4657 10.4083 19.4659 11.2217C19.466 11.8828 19.4664 12.5438 19.467 13.2049C19.4687 15.0798 19.4696 16.9547 19.4694 18.8295C19.4694 18.9305 19.4694 19.0315 19.4694 19.1356C19.4694 19.2367 19.4694 19.3378 19.4694 19.442C19.4693 21.0819 19.4712 22.7218 19.4739 24.3617C19.4767 26.0462 19.4781 27.7306 19.4779 29.415C19.4778 30.3605 19.4784 31.306 19.4805 32.2514C19.4823 33.0561 19.4827 33.8607 19.4814 34.6654C19.4807 35.0759 19.4807 35.4863 19.4824 35.8968C19.4839 36.2727 19.4837 36.6486 19.482 37.0245C19.4817 37.1603 19.482 37.2961 19.4831 37.4319C19.4888 38.1905 19.4648 38.7435 19.0433 39.3877C18.6325 39.786 18.2726 39.9528 17.7028 40C16.8754 39.9737 16.2437 39.6311 15.631 39.0967C15.5606 39.0187 15.4903 38.9407 15.4178 38.8603C15.3594 38.8103 15.3011 38.7603 15.241 38.7088C14.8491 38.7408 14.6622 38.8548 14.388 39.1271C13.6901 39.7662 12.8994 40.0006 11.964 39.9837C10.9842 39.9247 10.1703 39.5405 9.50109 38.8179C9.39636 38.687 9.29454 38.5537 9.19642 38.4178C9.15633 38.3625 9.11624 38.3073 9.07493 38.2503C8.77231 37.7496 8.73145 37.1997 8.68655 36.6279C8.65334 36.2338 8.65334 36.2338 8.4595 35.8978C8.41313 35.8652 8.36675 35.8326 8.31897 35.7989C8.25513 35.8199 8.19129 35.8409 8.12551 35.8626C7.10371 36.1727 6.09529 36.2427 5.10167 35.7989C4.21405 35.3155 3.62014 34.6401 3.30146 33.6795C3.10588 32.8983 3.14521 32.272 3.38639 31.5047C3.44915 31.2179 3.42467 31.0356 3.34678 30.7552C3.21256 30.7322 3.21256 30.7322 3.07562 30.7086C2.00934 30.5069 1.23938 30.2124 0.583434 29.3151C0.0720083 28.5474 -0.105352 27.7526 0.0773032 26.844C0.352316 25.9163 0.879893 25.2628 1.68938 24.7416C1.68112 24.4704 1.63327 24.3012 1.44717 24.1005C1.38835 24.046 1.32954 23.9915 1.26894 23.9353C0.694347 23.3977 0.415818 22.7472 0.391493 21.9651C0.402785 21.2012 0.658596 20.6137 1.17754 20.0555C1.23736 19.9979 1.29718 19.9403 1.35882 19.8809C1.53236 19.6466 1.51997 19.4972 1.49439 19.2129C1.40843 19.1752 1.40843 19.1752 1.32073 19.1367C0.67123 18.7829 0.314455 18.134 0.096345 17.453C-0.10176 16.6005 0.00509934 15.8138 0.42196 15.0421C0.876057 14.412 1.35055 13.9616 2.07936 13.6842C2.20945 13.6279 2.33945 13.5713 2.46933 13.5145C2.61411 13.4545 2.61411 13.4545 2.76181 13.3932C2.7108 12.9872 2.558 12.678 2.36575 12.3229C2.04878 11.662 2.08367 10.8133 2.23664 10.1125C2.49942 9.37888 3.00545 8.70979 3.68801 8.31317C4.30852 8.04185 5.02195 7.97051 5.68663 7.86457C5.77109 7.52847 5.78014 7.32189 5.68663 6.99162C5.58666 5.80293 5.83181 4.83522 6.60864 3.91319C7.28519 3.17706 8.04759 2.88167 9.03418 2.78715C9.5056 2.6723 9.71549 2.30136 9.98246 1.92367C10.8216 0.843675 12.0896 0.232956 13.4306 0.0353122C14.8304 -0.117077 16.2415 0.221862 17.3623 1.08899ZM8.4774 7.30685C7.94167 7.99883 7.7881 8.69378 7.78923 9.55553C7.83702 9.83693 7.89269 9.931 8.12398 10.0954C8.32895 10.095 8.32895 10.095 8.51396 9.99845C8.7261 9.68187 8.73195 9.5721 8.74551 9.20431C8.79457 8.56807 8.96304 8.11786 9.3975 7.64633C10.0225 7.27592 10.739 7.08027 11.4388 6.89463C11.5138 6.66714 11.5138 6.66714 11.5363 6.40966C11.4369 6.22182 11.4369 6.22182 11.2438 6.11867C10.2304 6.05598 9.16241 6.58084 8.4774 7.30685ZM15.241 6.89463C15.1852 7.27716 15.2793 7.49895 15.4787 7.82214C15.8688 8.46021 15.8957 9.0648 15.826 9.80446C15.6954 10.2157 15.4919 10.5158 15.2106 10.8411C15.0149 11.0562 15.0149 11.0562 15.0704 11.3382C15.0946 11.4082 15.1187 11.4782 15.1436 11.5504C15.367 11.6318 15.367 11.6318 15.631 11.6474C16.2794 11.1909 16.6306 10.46 16.8009 9.70746C16.9374 8.6808 16.5799 7.74615 16.021 6.89463C15.9566 6.83061 15.8923 6.7666 15.826 6.70064C15.5155 6.67374 15.5155 6.67374 15.241 6.89463ZM8.25385 13.9733C7.83238 14.609 7.8561 15.2744 7.929 16.0121C8.16982 17.0069 8.79766 17.828 9.6359 18.4138C10.2505 18.766 10.826 18.9137 11.5363 18.8249C11.8182 18.7188 12.0541 18.5887 12.3162 18.437C12.3325 18.2026 12.3325 18.2026 12.3162 17.952C12.2519 17.888 12.1875 17.8239 12.1212 17.758C11.8896 17.7902 11.8896 17.7902 11.6338 17.855C10.9879 17.9222 10.4905 17.9087 9.95504 17.5201C9.33903 16.9878 8.9539 16.4453 8.87652 15.6241C8.8602 15.0723 8.86799 14.7276 9.19642 14.2662C9.26076 14.2022 9.32511 14.1382 9.39141 14.0722C9.36315 13.7515 9.36315 13.7515 9.19642 13.4902C8.70991 13.3796 8.54019 13.6283 8.25385 13.9733ZM13.1206 14.4784C12.9746 14.6511 12.9746 14.6511 13.009 14.891C13.0739 15.1556 13.0739 15.1556 13.3129 15.2831C13.4499 15.3439 13.4499 15.3439 13.5897 15.4059C14.4147 15.8237 14.9634 16.4258 15.2727 17.2988C15.4603 18.0541 15.45 18.8439 15.4299 19.6176C15.4158 19.7968 15.4158 19.7968 15.5335 19.8919C15.7732 19.9161 15.7732 19.9161 16.021 19.8919C16.4198 19.4951 16.3432 18.8735 16.3444 18.3414C16.3223 17.2173 15.9191 16.2246 15.1367 15.4154C14.2254 14.5339 14.2254 14.5339 13.1206 14.4784ZM14.1686 22.3167C14.1834 23.1703 14.6036 23.7169 15.1436 24.3536C15.094 24.3891 15.0445 24.4246 14.9935 24.4612C14.2884 25.013 13.7986 25.784 13.6811 26.6815C13.6658 26.9746 13.6631 27.267 13.6629 27.5605C13.6617 27.6383 13.6605 27.7161 13.6592 27.7963C13.6537 28.3335 13.6537 28.3335 13.8761 28.8153C14.1117 28.8315 14.1117 28.8315 14.3636 28.8153C14.5896 28.6342 14.5896 28.6342 14.5708 28.3429C14.5668 28.2287 14.5627 28.1146 14.5586 27.997C14.5479 27.049 14.594 26.1674 15.241 25.4205C15.5992 25.0896 15.911 24.9532 16.3805 24.8265C16.8311 24.7173 16.8311 24.7173 17.1909 24.4506C17.2153 24.204 17.2153 24.204 17.1909 23.9656C17.0216 23.7971 16.7697 23.8241 16.5389 23.7959C15.9757 23.7028 15.706 23.6283 15.3385 23.1897C15.2347 22.9376 15.1443 22.6826 15.0529 22.4258C14.9599 22.1854 14.9599 22.1854 14.6439 22.0985C14.351 22.0937 14.351 22.0937 14.1686 22.3167ZM8.80644 22.4137C8.81597 22.6757 8.83514 22.9294 8.86128 23.1897C8.94135 24.2357 8.77994 24.8987 8.09656 25.7202C7.9479 25.8846 7.79581 26.0424 7.63651 26.1965C7.71269 26.4385 7.71269 26.4385 7.8315 26.6815C8.10872 26.8106 8.10872 26.8106 8.3026 26.6947C8.86239 26.2872 9.17767 25.8391 9.4889 25.2266C9.5222 25.1682 9.55551 25.1098 9.58982 25.0496C9.81277 24.5905 9.8112 24.1146 9.81794 23.614C9.81931 23.5433 9.82067 23.4726 9.82208 23.3997C9.81794 22.9364 9.73277 22.6267 9.4889 22.2197C9.10335 22.186 9.10335 22.186 8.80644 22.4137ZM9.55167 29.2711C9.00973 29.6979 8.35809 29.7315 7.69745 29.7429C7.12882 29.7187 7.12882 29.7187 6.66157 29.9793C6.62095 30.2218 6.62095 30.2218 6.66157 30.4642C7.02305 30.704 7.30875 30.6953 7.72791 30.6946C7.83818 30.6948 7.83818 30.6948 7.95068 30.695C8.60855 30.6828 9.17667 30.5299 9.78138 30.2703C9.77233 30.4143 9.77233 30.4143 9.7631 30.5612C9.76397 30.9837 9.86619 31.356 10.0739 31.7252C10.2708 31.8765 10.2708 31.8765 10.4638 31.9192C10.5925 31.8231 10.7212 31.7271 10.8538 31.6282C10.8397 31.5599 10.8257 31.4916 10.8112 31.4213C10.6807 30.7309 10.6461 30.0834 10.671 29.3814C10.6894 29.0931 10.6894 29.0931 10.4638 28.9123C10.0306 28.8285 9.8656 28.9906 9.55167 29.2711ZM13.7786 32.4041C13.7143 32.4681 13.6499 32.5322 13.5836 32.5981C13.5779 32.8374 13.5779 32.8374 13.6811 33.0831C14.3737 33.7084 15.2866 34.0384 16.216 34.053C16.3125 33.989 16.409 33.925 16.5085 33.859C16.5572 33.6166 16.5572 33.6166 16.5085 33.3741C16.207 33.1741 16.0172 33.126 15.6676 33.0528C15.1723 32.9371 14.7844 32.7727 14.3575 32.5C14.1461 32.3748 14.1461 32.3748 13.7786 32.4041Z" fill="#8B62F0"/>
<path d="M20.3107 30.2703C21.176 30.2635 22.0413 30.2583 22.9067 30.2552C23.3085 30.2537 23.7104 30.2516 24.1122 30.2483C24.5003 30.2451 24.8885 30.2434 25.2766 30.2426C25.4244 30.2421 25.5721 30.2411 25.7198 30.2395C25.9275 30.2374 26.1351 30.2371 26.3428 30.2372C26.5198 30.2363 26.5198 30.2363 26.7004 30.2353C27.3396 30.3016 27.7911 30.5511 28.2077 31.0462C28.55 31.5728 28.5354 32.0296 28.5185 32.6345C28.5165 32.7693 28.5165 32.7693 28.5145 32.9069C28.5111 33.1273 28.5058 33.3477 28.5002 33.5681C28.1463 33.5681 27.7924 33.5681 27.4278 33.5681C27.4253 33.4465 27.4228 33.325 27.4202 33.1998C27.4147 33.0396 27.4091 32.8795 27.4034 32.7194C27.402 32.6393 27.4007 32.5593 27.3992 32.4769C27.3961 32.3994 27.3929 32.3218 27.3897 32.242C27.3866 32.1353 27.3866 32.1353 27.3835 32.0265C27.3069 31.7322 27.1783 31.6231 26.9403 31.4342C26.634 31.3744 26.634 31.3744 26.2875 31.3812C26.2228 31.3802 26.158 31.3792 26.0914 31.3782C25.8782 31.3753 25.6652 31.3752 25.452 31.3751C25.3039 31.3736 25.1559 31.372 25.0078 31.3702C24.6186 31.366 24.2295 31.364 23.8403 31.3626C23.443 31.3607 23.0456 31.3566 22.6483 31.3527C21.8691 31.3454 21.0899 31.3405 20.3107 31.3372C20.3107 30.9851 20.3107 30.633 20.3107 30.2703Z" fill="#5293E8"/>
<path d="M27.4278 6.40966C27.7817 6.40966 28.1356 6.40966 28.5002 6.40966C28.5108 6.7169 28.5185 7.02377 28.5246 7.3311C28.5279 7.41713 28.5311 7.50315 28.5345 7.59178C28.5446 8.27163 28.4225 8.80461 27.9366 9.30395C27.8813 9.33909 27.826 9.37422 27.769 9.41042C27.6861 9.46575 27.6861 9.46575 27.6015 9.52219C27.202 9.72525 26.8194 9.71928 26.376 9.71848C26.2775 9.7185 26.2775 9.7185 26.177 9.71852C25.9607 9.71845 25.7445 9.7177 25.5282 9.71694C25.3779 9.71676 25.2277 9.71662 25.0774 9.71652C24.6825 9.71615 24.2875 9.7152 23.8926 9.71412C23.4894 9.71313 23.0862 9.71269 22.683 9.7122C21.8922 9.71116 21.1015 9.70951 20.3107 9.70746C20.3107 9.35537 20.3107 9.00329 20.3107 8.64053C20.3929 8.64017 20.4751 8.63982 20.5598 8.63945C21.3345 8.63578 22.1091 8.63027 22.8837 8.62269C23.2819 8.61886 23.6802 8.61574 24.0784 8.61424C24.4628 8.61277 24.8471 8.60943 25.2315 8.6048C25.3781 8.60336 25.5247 8.6026 25.6713 8.60252C25.8768 8.60229 26.0821 8.59966 26.2875 8.59648C26.4628 8.59519 26.4628 8.59519 26.6417 8.59387C26.9977 8.53387 27.1128 8.43654 27.3303 8.15556C27.3916 7.95162 27.3916 7.95162 27.3897 7.73575C27.3944 7.61947 27.3944 7.61947 27.3992 7.50084C27.4006 7.42082 27.402 7.3408 27.4034 7.25836C27.4063 7.17684 27.4092 7.09532 27.4122 7.01133C27.419 6.81082 27.4236 6.61024 27.4278 6.40966Z" fill="#C82CF8"/>
<path d="M26.783 12.6953C26.8627 12.6956 26.9423 12.6959 27.0244 12.6962C27.2787 12.6973 27.533 12.6997 27.7873 12.7022C27.9598 12.7031 28.1322 12.704 28.3047 12.7048C28.7273 12.707 29.15 12.7103 29.5727 12.7143C29.5405 13.0344 29.5083 13.3545 29.4752 13.6842C29.3862 13.6846 29.2972 13.685 29.2055 13.6854C28.8738 13.6881 28.5423 13.6928 28.2107 13.699C28.0674 13.7013 27.9242 13.7027 27.7809 13.7032C27.5744 13.7041 27.3681 13.7081 27.1616 13.7126C27.0375 13.7142 26.9135 13.7157 26.7856 13.7173C26.1969 13.8304 25.9071 14.3254 25.5579 14.7758C25.058 15.2529 24.6269 15.3773 23.9517 15.3771C23.8593 15.3751 23.7669 15.3731 23.6716 15.371C23.527 15.3702 23.527 15.3702 23.3794 15.3694C23.0735 15.3672 22.7676 15.3623 22.4617 15.3574C22.2534 15.3554 22.0452 15.3537 21.8369 15.3521C21.3282 15.3478 20.8195 15.3411 20.3107 15.3331C20.3107 14.981 20.3107 14.629 20.3107 14.2662C20.492 14.2717 20.492 14.2717 20.677 14.2773C21.1306 14.2893 21.5839 14.2929 22.0376 14.294C22.233 14.2957 22.4283 14.2995 22.6236 14.3058C23.8338 14.3768 23.8338 14.3767 24.8893 13.8867C25.1869 13.5853 25.4267 13.2515 25.6729 12.9083C26.047 12.6602 26.35 12.6897 26.783 12.6953Z" fill="#AC44F4"/>
<path d="M20.3107 24.3536C20.9351 24.3368 21.5594 24.3245 22.184 24.3163C22.3962 24.3129 22.6084 24.3083 22.8205 24.3024C23.1265 24.2941 23.4322 24.2903 23.7383 24.2873C23.8794 24.282 23.8794 24.282 24.0233 24.2767C24.6475 24.2763 24.9655 24.4117 25.414 24.8449C25.5816 25.0397 25.7213 25.2424 25.8622 25.4569C26.1447 25.7877 26.3831 25.8594 26.8156 25.8963C27.1805 25.9121 27.544 25.9104 27.9092 25.9055C28.0611 25.9063 28.213 25.9074 28.3648 25.9089C28.7351 25.9118 29.105 25.91 29.4752 25.9055C29.5234 26.4337 29.5234 26.4337 29.5727 26.9725C29.0817 26.9797 28.5909 26.9849 28.0999 26.9884C27.933 26.9899 27.7661 26.9919 27.5992 26.9944C27.3589 26.9979 27.1186 26.9996 26.8782 27.0009C26.7669 27.0031 26.7669 27.0031 26.6532 27.0054C26.0643 27.0056 25.7703 26.8566 25.3427 26.4723C25.2687 26.3973 25.1947 26.3223 25.1184 26.245C25.0436 26.17 24.9688 26.095 24.8918 26.0177C24.698 25.8085 24.698 25.8085 24.503 25.5175C24.2439 25.4316 24.0855 25.4065 23.8193 25.4006C23.7412 25.3987 23.6632 25.3968 23.5828 25.3948C23.499 25.3931 23.4152 25.3915 23.3289 25.3899C23.2427 25.3878 23.1566 25.3858 23.0678 25.3837C22.7927 25.3774 22.5175 25.3717 22.2423 25.366C22.0558 25.3618 21.8692 25.3576 21.6827 25.3533C21.2254 25.3429 20.7681 25.3331 20.3107 25.3235C20.3107 25.0035 20.3107 24.6834 20.3107 24.3536Z" fill="#6F79EC"/>
<path d="M20.3107 19.3099C22.2089 19.3099 24.1071 19.3099 26.0629 19.3099C26.0629 19.662 26.0629 20.0141 26.0629 20.3768C24.1647 20.3768 22.2665 20.3768 20.3107 20.3768C20.3107 20.0247 20.3107 19.6727 20.3107 19.3099Z" fill="#8E5FF0"/>
<path d="M28.49 34.4111C28.9189 34.6258 29.1246 34.8497 29.2802 35.314C29.3347 35.8205 29.2726 36.1497 28.9877 36.5749C28.659 36.8708 28.4002 36.9894 27.964 37.0114C27.5278 36.9894 27.269 36.8708 26.9403 36.5749C26.6558 36.1503 26.5854 35.8198 26.6478 35.314C26.7926 34.9195 26.9631 34.6862 27.312 34.4471C27.7288 34.3088 28.068 34.2579 28.49 34.4111Z" fill="#3AA8E5"/>
<path d="M28.4027 3.01486C28.882 3.24445 29.1033 3.48629 29.2802 3.9848C29.342 4.46805 29.2728 4.79292 29.0132 5.19609C28.7254 5.53914 28.4012 5.62155 27.9701 5.67614C27.5493 5.62473 27.2658 5.51601 26.9403 5.24573C26.6491 4.82513 26.5934 4.4899 26.6478 3.9848C26.9414 3.15732 27.5646 2.8684 28.4027 3.01486Z" fill="#E017FB"/>
<path d="M28.5977 18.5339C29.077 18.7635 29.2983 19.0054 29.4752 19.5039C29.537 19.9871 29.4677 20.312 29.2082 20.7152C28.9204 21.0582 28.5962 21.1406 28.1651 21.1952C27.7443 21.1438 27.4608 21.0351 27.1353 20.7648C26.8446 20.345 26.7806 20.0082 26.8428 19.5039C26.9776 19.1543 27.1623 18.887 27.4461 18.637C27.8383 18.4896 28.1839 18.4693 28.5977 18.5339Z" fill="#8E5FF0"/>
<path d="M32.1075 11.9383C32.4744 12.0936 32.677 12.2822 32.8875 12.6173C33.0051 12.9683 33.0164 13.2179 32.985 13.5872C32.784 13.9586 32.5812 14.257 32.205 14.4602C31.655 14.6047 31.3363 14.5363 30.8401 14.2662C30.5674 14.0378 30.4659 13.9254 30.3526 13.5872C30.319 13.0681 30.305 12.7463 30.6451 12.3263C31.0663 11.8565 31.5124 11.8574 32.1075 11.9383Z" fill="#B140F5"/>
<path d="M32.4 25.3235C32.6598 25.5419 32.8325 25.7962 32.9849 26.0995C33.0242 26.6067 32.978 26.9343 32.6925 27.3604C32.3509 27.6754 32.0758 27.7777 31.62 27.803C31.276 27.789 31.0627 27.7439 30.7913 27.5302C30.4074 27.11 30.3108 26.8729 30.3282 26.2893C30.3804 25.8829 30.5892 25.6659 30.8827 25.3963C31.3873 25.0535 31.845 25.1041 32.4 25.3235Z" fill="#6A7DEC"/>
<path d="M40.542 34.121V34.639H39.212V39H38.575V34.639H37.238V34.121H40.542ZM44.8751 39L43.7131 37.005H42.9431V39H42.3061V34.121H43.8811C44.2498 34.121 44.5601 34.184 44.8121 34.31C45.0688 34.436 45.2601 34.6063 45.3861 34.821C45.5121 35.0357 45.5751 35.2807 45.5751 35.556C45.5751 35.892 45.4771 36.1883 45.2811 36.445C45.0898 36.7017 44.8004 36.872 44.4131 36.956L45.6381 39H44.8751ZM42.9431 36.494H43.8811C44.2264 36.494 44.4854 36.41 44.6581 36.242C44.8308 36.0693 44.9171 35.8407 44.9171 35.556C44.9171 35.2667 44.8308 35.0427 44.6581 34.884C44.4901 34.7253 44.2311 34.646 43.8811 34.646H42.9431V36.494ZM50.4289 37.915H48.3009L47.9089 39H47.2369L49.0009 34.149H49.7359L51.4929 39H50.8209L50.4289 37.915ZM50.2469 37.397L49.3649 34.933L48.4829 37.397H50.2469ZM57.0777 39H56.4407L53.8787 35.115V39H53.2417V34.114H53.8787L56.4407 37.992V34.114H57.0777V39ZM60.6906 39.049C60.3686 39.049 60.0792 38.993 59.8226 38.881C59.5706 38.7643 59.3722 38.6057 59.2276 38.405C59.0829 38.1997 59.0082 37.964 59.0036 37.698H59.6826C59.7059 37.9267 59.7992 38.1203 59.9626 38.279C60.1306 38.433 60.3732 38.51 60.6906 38.51C60.9939 38.51 61.2319 38.4353 61.4046 38.286C61.5819 38.132 61.6706 37.936 61.6706 37.698C61.6706 37.5113 61.6192 37.3597 61.5166 37.243C61.4139 37.1263 61.2856 37.0377 61.1316 36.977C60.9776 36.9163 60.7699 36.851 60.5086 36.781C60.1866 36.697 59.9276 36.613 59.7316 36.529C59.5402 36.445 59.3746 36.3143 59.2346 36.137C59.0992 35.955 59.0316 35.7123 59.0316 35.409C59.0316 35.143 59.0992 34.9073 59.2346 34.702C59.3699 34.4967 59.5589 34.338 59.8016 34.226C60.0489 34.114 60.3312 34.058 60.6486 34.058C61.1059 34.058 61.4792 34.1723 61.7686 34.401C62.0626 34.6297 62.2282 34.933 62.2656 35.311H61.5656C61.5422 35.1243 61.4442 34.961 61.2716 34.821C61.0989 34.6763 60.8702 34.604 60.5856 34.604C60.3196 34.604 60.1026 34.674 59.9346 34.814C59.7666 34.9493 59.6826 35.1407 59.6826 35.388C59.6826 35.5653 59.7316 35.71 59.8296 35.822C59.9322 35.934 60.0559 36.0203 60.2006 36.081C60.3499 36.137 60.5576 36.2023 60.8236 36.277C61.1456 36.3657 61.4046 36.4543 61.6006 36.543C61.7966 36.627 61.9646 36.76 62.1046 36.942C62.2446 37.1193 62.3146 37.362 62.3146 37.67C62.3146 37.908 62.2516 38.132 62.1256 38.342C61.9996 38.552 61.8129 38.7223 61.5656 38.853C61.3182 38.9837 61.0266 39.049 60.6906 39.049ZM66.99 34.121V34.639H64.869V36.284H66.591V36.802H64.869V39H64.232V34.121H66.99ZM70.9513 39.049C70.4986 39.049 70.0856 38.944 69.7123 38.734C69.339 38.5193 69.0426 38.223 68.8233 37.845C68.6086 37.4623 68.5013 37.033 68.5013 36.557C68.5013 36.081 68.6086 35.654 68.8233 35.276C69.0426 34.8933 69.339 34.597 69.7123 34.387C70.0856 34.1723 70.4986 34.065 70.9513 34.065C71.4086 34.065 71.824 34.1723 72.1973 34.387C72.5706 34.597 72.8646 34.891 73.0793 35.269C73.294 35.647 73.4013 36.0763 73.4013 36.557C73.4013 37.0377 73.294 37.467 73.0793 37.845C72.8646 38.223 72.5706 38.5193 72.1973 38.734C71.824 38.944 71.4086 39.049 70.9513 39.049ZM70.9513 38.496C71.292 38.496 71.5976 38.4167 71.8683 38.258C72.1436 38.0993 72.3583 37.873 72.5123 37.579C72.671 37.285 72.7503 36.9443 72.7503 36.557C72.7503 36.165 72.671 35.8243 72.5123 35.535C72.3583 35.241 72.146 35.0147 71.8753 34.856C71.6046 34.6973 71.2966 34.618 70.9513 34.618C70.606 34.618 70.298 34.6973 70.0273 34.856C69.7566 35.0147 69.542 35.241 69.3833 35.535C69.2293 35.8243 69.1523 36.165 69.1523 36.557C69.1523 36.9443 69.2293 37.285 69.3833 37.579C69.542 37.873 69.7566 38.0993 70.0273 38.258C70.3026 38.4167 70.6106 38.496 70.9513 38.496ZM77.7912 39L76.6292 37.005H75.8592V39H75.2222V34.121H76.7972C77.1659 34.121 77.4762 34.184 77.7282 34.31C77.9849 34.436 78.1762 34.6063 78.3022 34.821C78.4282 35.0357 78.4912 35.2807 78.4912 35.556C78.4912 35.892 78.3932 36.1883 78.1972 36.445C78.0059 36.7017 77.7166 36.872 77.3292 36.956L78.5542 39H77.7912ZM75.8592 36.494H76.7972C77.1426 36.494 77.4016 36.41 77.5742 36.242C77.7469 36.0693 77.8332 35.8407 77.8332 35.556C77.8332 35.2667 77.7469 35.0427 77.5742 34.884C77.4062 34.7253 77.1472 34.646 76.7972 34.646H75.8592V36.494ZM85.41 34.156V39H84.773V35.388L83.163 39H82.715L81.098 35.381V39H80.461V34.156H81.147L82.939 38.16L84.731 34.156H85.41ZM88.1073 34.121V39H87.4703V34.121H88.1073ZM94.009 39H93.372L90.81 35.115V39H90.173V34.114H90.81L93.372 37.992V34.114H94.009V39ZM99.7709 35.535C99.6355 35.2503 99.4395 35.031 99.1829 34.877C98.9262 34.7183 98.6275 34.639 98.2869 34.639C97.9462 34.639 97.6382 34.7183 97.3629 34.877C97.0922 35.031 96.8775 35.255 96.7189 35.549C96.5649 35.8383 96.4879 36.1743 96.4879 36.557C96.4879 36.9397 96.5649 37.2757 96.7189 37.565C96.8775 37.8543 97.0922 38.0783 97.3629 38.237C97.6382 38.391 97.9462 38.468 98.2869 38.468C98.7629 38.468 99.1549 38.3257 99.4629 38.041C99.7709 37.7563 99.9505 37.3713 100.002 36.886H98.0559V36.368H100.681V36.858C100.644 37.2593 100.518 37.628 100.303 37.964C100.088 38.2953 99.8059 38.559 99.4559 38.755C99.1059 38.9463 98.7162 39.042 98.2869 39.042C97.8342 39.042 97.4212 38.937 97.0479 38.727C96.6745 38.5123 96.3782 38.216 96.1589 37.838C95.9442 37.46 95.8369 37.033 95.8369 36.557C95.8369 36.081 95.9442 35.654 96.1589 35.276C96.3782 34.8933 96.6745 34.597 97.0479 34.387C97.4212 34.1723 97.8342 34.065 98.2869 34.065C98.8049 34.065 99.2622 34.1933 99.6589 34.45C100.06 34.7067 100.352 35.0683 100.534 35.535H99.7709ZM106.868 34.121C107.4 34.121 107.86 34.2213 108.247 34.422C108.639 34.618 108.938 34.9003 109.143 35.269C109.353 35.6377 109.458 36.0717 109.458 36.571C109.458 37.0703 109.353 37.5043 109.143 37.873C108.938 38.237 108.639 38.517 108.247 38.713C107.86 38.9043 107.4 39 106.868 39H105.349V34.121H106.868ZM106.868 38.475C107.498 38.475 107.979 38.3093 108.31 37.978C108.642 37.642 108.807 37.173 108.807 36.571C108.807 35.9643 108.639 35.4907 108.303 35.15C107.972 34.8093 107.494 34.639 106.868 34.639H105.986V38.475H106.868ZM114.163 37.915H112.035L111.643 39H110.971L112.735 34.149H113.47L115.227 39H114.555L114.163 37.915ZM113.981 37.397L113.099 34.933L112.217 37.397H113.981ZM119.978 34.121V34.639H118.648V39H118.011V34.639H116.674V34.121H119.978ZM124.626 37.915H122.498L122.106 39H121.434L123.198 34.149H123.933L125.69 39H125.018L124.626 37.915ZM124.444 37.397L123.562 34.933L122.68 37.397H124.444ZM130.922 34.121V39H130.285V34.121H130.922ZM136.824 39H136.187L133.625 35.115V39H132.988V34.114H133.625L136.187 37.992V34.114H136.824V39ZM141.893 34.121V34.639H140.563V39H139.926V34.639H138.589V34.121H141.893ZM145.869 39.049C145.416 39.049 145.003 38.944 144.63 38.734C144.257 38.5193 143.96 38.223 143.741 37.845C143.526 37.4623 143.419 37.033 143.419 36.557C143.419 36.081 143.526 35.654 143.741 35.276C143.96 34.8933 144.257 34.597 144.63 34.387C145.003 34.1723 145.416 34.065 145.869 34.065C146.326 34.065 146.742 34.1723 147.115 34.387C147.488 34.597 147.782 34.891 147.997 35.269C148.212 35.647 148.319 36.0763 148.319 36.557C148.319 37.0377 148.212 37.467 147.997 37.845C147.782 38.223 147.488 38.5193 147.115 38.734C146.742 38.944 146.326 39.049 145.869 39.049ZM145.869 38.496C146.21 38.496 146.515 38.4167 146.786 38.258C147.061 38.0993 147.276 37.873 147.43 37.579C147.589 37.285 147.668 36.9443 147.668 36.557C147.668 36.165 147.589 35.8243 147.43 35.535C147.276 35.241 147.064 35.0147 146.793 34.856C146.522 34.6973 146.214 34.618 145.869 34.618C145.524 34.618 145.216 34.6973 144.945 34.856C144.674 35.0147 144.46 35.241 144.301 35.535C144.147 35.8243 144.07 36.165 144.07 36.557C144.07 36.9443 144.147 37.285 144.301 37.579C144.46 37.873 144.674 38.0993 144.945 38.258C145.22 38.4167 145.528 38.496 145.869 38.496ZM153.623 34.121V39H152.986V34.121H153.623ZM159.525 39H158.888L156.326 35.115V39H155.689V34.114H156.326L158.888 37.992V34.114H159.525V39ZM163.138 39.049C162.816 39.049 162.526 38.993 162.27 38.881C162.018 38.7643 161.819 38.6057 161.675 38.405C161.53 38.1997 161.455 37.964 161.451 37.698H162.13C162.153 37.9267 162.246 38.1203 162.41 38.279C162.578 38.433 162.82 38.51 163.138 38.51C163.441 38.51 163.679 38.4353 163.852 38.286C164.029 38.132 164.118 37.936 164.118 37.698C164.118 37.5113 164.066 37.3597 163.964 37.243C163.861 37.1263 163.733 37.0377 163.579 36.977C163.425 36.9163 163.217 36.851 162.956 36.781C162.634 36.697 162.375 36.613 162.179 36.529C161.987 36.445 161.822 36.3143 161.682 36.137C161.546 35.955 161.479 35.7123 161.479 35.409C161.479 35.143 161.546 34.9073 161.682 34.702C161.817 34.4967 162.006 34.338 162.249 34.226C162.496 34.114 162.778 34.058 163.096 34.058C163.553 34.058 163.926 34.1723 164.216 34.401C164.51 34.6297 164.675 34.933 164.713 35.311H164.013C163.989 35.1243 163.891 34.961 163.719 34.821C163.546 34.6763 163.317 34.604 163.033 34.604C162.767 34.604 162.55 34.674 162.382 34.814C162.214 34.9493 162.13 35.1407 162.13 35.388C162.13 35.5653 162.179 35.71 162.277 35.822C162.379 35.934 162.503 36.0203 162.648 36.081C162.797 36.137 163.005 36.2023 163.271 36.277C163.593 36.3657 163.852 36.4543 164.048 36.543C164.244 36.627 164.412 36.76 164.552 36.942C164.692 37.1193 164.762 37.362 164.762 37.67C164.762 37.908 164.699 38.132 164.573 38.342C164.447 38.552 164.26 38.7223 164.013 38.853C163.765 38.9837 163.474 39.049 163.138 39.049ZM167.316 34.121V39H166.679V34.121H167.316ZM173.078 35.535C172.942 35.2503 172.746 35.031 172.49 34.877C172.233 34.7183 171.934 34.639 171.594 34.639C171.253 34.639 170.945 34.7183 170.67 34.877C170.399 35.031 170.184 35.255 170.026 35.549C169.872 35.8383 169.795 36.1743 169.795 36.557C169.795 36.9397 169.872 37.2757 170.026 37.565C170.184 37.8543 170.399 38.0783 170.67 38.237C170.945 38.391 171.253 38.468 171.594 38.468C172.07 38.468 172.462 38.3257 172.77 38.041C173.078 37.7563 173.257 37.3713 173.309 36.886H171.363V36.368H173.988V36.858C173.95 37.2593 173.824 37.628 173.61 37.964C173.395 38.2953 173.113 38.559 172.763 38.755C172.413 38.9463 172.023 39.042 171.594 39.042C171.141 39.042 170.728 38.937 170.355 38.727C169.981 38.5123 169.685 38.216 169.466 37.838C169.251 37.46 169.144 37.033 169.144 36.557C169.144 36.081 169.251 35.654 169.466 35.276C169.685 34.8933 169.981 34.597 170.355 34.387C170.728 34.1723 171.141 34.065 171.594 34.065C172.112 34.065 172.569 34.1933 172.966 34.45C173.367 34.7067 173.659 35.0683 173.841 35.535H173.078ZM179.569 34.121V39H178.932V36.788H176.447V39H175.81V34.121H176.447V36.263H178.932V34.121H179.569ZM184.64 34.121V34.639H183.31V39H182.673V34.639H181.336V34.121H184.64ZM187.951 39.049C187.629 39.049 187.34 38.993 187.083 38.881C186.831 38.7643 186.633 38.6057 186.488 38.405C186.343 38.1997 186.269 37.964 186.264 37.698H186.943C186.966 37.9267 187.06 38.1203 187.223 38.279C187.391 38.433 187.634 38.51 187.951 38.51C188.254 38.51 188.492 38.4353 188.665 38.286C188.842 38.132 188.931 37.936 188.931 37.698C188.931 37.5113 188.88 37.3597 188.777 37.243C188.674 37.1263 188.546 37.0377 188.392 36.977C188.238 36.9163 188.03 36.851 187.769 36.781C187.447 36.697 187.188 36.613 186.992 36.529C186.801 36.445 186.635 36.3143 186.495 36.137C186.36 35.955 186.292 35.7123 186.292 35.409C186.292 35.143 186.36 34.9073 186.495 34.702C186.63 34.4967 186.819 34.338 187.062 34.226C187.309 34.114 187.592 34.058 187.909 34.058C188.366 34.058 188.74 34.1723 189.029 34.401C189.323 34.6297 189.489 34.933 189.526 35.311H188.826C188.803 35.1243 188.705 34.961 188.532 34.821C188.359 34.6763 188.131 34.604 187.846 34.604C187.58 34.604 187.363 34.674 187.195 34.814C187.027 34.9493 186.943 35.1407 186.943 35.388C186.943 35.5653 186.992 35.71 187.09 35.822C187.193 35.934 187.316 36.0203 187.461 36.081C187.61 36.137 187.818 36.2023 188.084 36.277C188.406 36.3657 188.665 36.4543 188.861 36.543C189.057 36.627 189.225 36.76 189.365 36.942C189.505 37.1193 189.575 37.362 189.575 37.67C189.575 37.908 189.512 38.132 189.386 38.342C189.26 38.552 189.073 38.7223 188.826 38.853C188.579 38.9837 188.287 39.049 187.951 39.049Z" fill="black"/>
</svg>
